<mxfile host="app.diagrams.net" modified="2023-09-14T07:47:27.421Z" agent="Mozilla/5.0 (Windows NT 10.0; Win64; x64) AppleWebKit/537.36 (KHTML, like Gecko) Chrome/116.0.0.0 Safari/537.36 Edg/116.0.1938.76" etag="Ud63x6fVp1Fv0jlzRRUi" version="21.7.5" type="github">
  <diagram name="Page-1" id="9f46799a-70d6-7492-0946-bef42562c5a5">
    <mxGraphModel dx="815" dy="442" grid="1" gridSize="10" guides="1" tooltips="1" connect="1" arrows="1" fold="1" page="1" pageScale="1" pageWidth="1100" pageHeight="850" background="none" math="0" shadow="0">
      <root>
        <mxCell id="0" />
        <mxCell id="1" parent="0" />
        <mxCell id="TbQtkp3sbQzcPBeuqg9F-14" style="edgeStyle=orthogonalEdgeStyle;rounded=0;orthogonalLoop=1;jettySize=auto;html=1;" edge="1" parent="1" source="78961159f06e98e8-17" target="TbQtkp3sbQzcPBeuqg9F-1">
          <mxGeometry relative="1" as="geometry" />
        </mxCell>
        <mxCell id="TbQtkp3sbQzcPBeuqg9F-84" style="edgeStyle=orthogonalEdgeStyle;rounded=0;orthogonalLoop=1;jettySize=auto;html=1;entryX=0.576;entryY=-0.006;entryDx=0;entryDy=0;entryPerimeter=0;" edge="1" parent="1" source="78961159f06e98e8-17" target="TbQtkp3sbQzcPBeuqg9F-76">
          <mxGeometry relative="1" as="geometry" />
        </mxCell>
        <mxCell id="78961159f06e98e8-17" value="FusionDataPool" style="swimlane;html=1;fontStyle=1;align=center;verticalAlign=top;childLayout=stackLayout;horizontal=1;startSize=26;horizontalStack=0;resizeParent=1;resizeLast=0;collapsible=1;marginBottom=0;swimlaneFillColor=#ffffff;rounded=0;shadow=0;comic=0;labelBackgroundColor=none;strokeWidth=1;fillColor=none;fontFamily=Verdana;fontSize=12" parent="1" vertex="1">
          <mxGeometry x="330" y="30" width="280" height="270" as="geometry" />
        </mxCell>
        <mxCell id="78961159f06e98e8-21" value="current_timestamp_ns:uint64_t" style="text;html=1;strokeColor=none;fillColor=none;align=left;verticalAlign=top;spacingLeft=4;spacingRight=4;whiteSpace=wrap;overflow=hidden;rotatable=0;points=[[0,0.5],[1,0.5]];portConstraint=eastwest;" parent="78961159f06e98e8-17" vertex="1">
          <mxGeometry y="26" width="280" height="26" as="geometry" />
        </mxCell>
        <mxCell id="78961159f06e98e8-23" value="latest_timestamp_ns_:uint64_t" style="text;html=1;strokeColor=none;fillColor=none;align=left;verticalAlign=top;spacingLeft=4;spacingRight=4;whiteSpace=wrap;overflow=hidden;rotatable=0;points=[[0,0.5],[1,0.5]];portConstraint=eastwest;" parent="78961159f06e98e8-17" vertex="1">
          <mxGeometry y="52" width="280" height="26" as="geometry" />
        </mxCell>
        <mxCell id="78961159f06e98e8-25" value="sensor_data_pool_ptr_:SensorDataPoolPtr" style="text;html=1;strokeColor=none;fillColor=none;align=left;verticalAlign=top;spacingLeft=4;spacingRight=4;whiteSpace=wrap;overflow=hidden;rotatable=0;points=[[0,0.5],[1,0.5]];portConstraint=eastwest;" parent="78961159f06e98e8-17" vertex="1">
          <mxGeometry y="78" width="280" height="26" as="geometry" />
        </mxCell>
        <mxCell id="78961159f06e98e8-26" value="track_data_pool_ptr_:TrackDataPoolPtr" style="text;html=1;strokeColor=none;fillColor=none;align=left;verticalAlign=top;spacingLeft=4;spacingRight=4;whiteSpace=wrap;overflow=hidden;rotatable=0;points=[[0,0.5],[1,0.5]];portConstraint=eastwest;" parent="78961159f06e98e8-17" vertex="1">
          <mxGeometry y="104" width="280" height="26" as="geometry" />
        </mxCell>
        <mxCell id="78961159f06e98e8-24" value="output_track_data_pool_ptr_:TrackDataPoolPtr" style="text;html=1;strokeColor=none;fillColor=none;align=left;verticalAlign=top;spacingLeft=4;spacingRight=4;whiteSpace=wrap;overflow=hidden;rotatable=0;points=[[0,0.5],[1,0.5]];portConstraint=eastwest;" parent="78961159f06e98e8-17" vertex="1">
          <mxGeometry y="130" width="280" height="26" as="geometry" />
        </mxCell>
        <mxCell id="78961159f06e98e8-19" value="" style="line;html=1;strokeWidth=1;fillColor=none;align=left;verticalAlign=middle;spacingTop=-1;spacingLeft=3;spacingRight=3;rotatable=0;labelPosition=right;points=[];portConstraint=eastwest;" parent="78961159f06e98e8-17" vertex="1">
          <mxGeometry y="156" width="280" height="8" as="geometry" />
        </mxCell>
        <mxCell id="78961159f06e98e8-20" value="GetSensorDataPool:SensorDataPoolPtr" style="text;html=1;strokeColor=none;fillColor=none;align=left;verticalAlign=top;spacingLeft=4;spacingRight=4;whiteSpace=wrap;overflow=hidden;rotatable=0;points=[[0,0.5],[1,0.5]];portConstraint=eastwest;" parent="78961159f06e98e8-17" vertex="1">
          <mxGeometry y="164" width="280" height="26" as="geometry" />
        </mxCell>
        <mxCell id="78961159f06e98e8-27" value="GetTrackDataPool:TrackDataPoolPtr" style="text;html=1;strokeColor=none;fillColor=none;align=left;verticalAlign=top;spacingLeft=4;spacingRight=4;whiteSpace=wrap;overflow=hidden;rotatable=0;points=[[0,0.5],[1,0.5]];portConstraint=eastwest;" parent="78961159f06e98e8-17" vertex="1">
          <mxGeometry y="190" width="280" height="26" as="geometry" />
        </mxCell>
        <mxCell id="TbQtkp3sbQzcPBeuqg9F-5" value="GetTrackDataPool:TrackDataPoolPtr" style="text;html=1;strokeColor=none;fillColor=none;align=left;verticalAlign=top;spacingLeft=4;spacingRight=4;whiteSpace=wrap;overflow=hidden;rotatable=0;points=[[0,0.5],[1,0.5]];portConstraint=eastwest;" vertex="1" parent="78961159f06e98e8-17">
          <mxGeometry y="216" width="280" height="26" as="geometry" />
        </mxCell>
        <mxCell id="TbQtkp3sbQzcPBeuqg9F-8" value="UpdateOutputTrackDataPool:void" style="text;html=1;strokeColor=none;fillColor=none;align=left;verticalAlign=top;spacingLeft=4;spacingRight=4;whiteSpace=wrap;overflow=hidden;rotatable=0;points=[[0,0.5],[1,0.5]];portConstraint=eastwest;" vertex="1" parent="78961159f06e98e8-17">
          <mxGeometry y="242" width="280" height="26" as="geometry" />
        </mxCell>
        <mxCell id="TbQtkp3sbQzcPBeuqg9F-30" style="edgeStyle=orthogonalEdgeStyle;rounded=0;orthogonalLoop=1;jettySize=auto;html=1;" edge="1" parent="1" source="TbQtkp3sbQzcPBeuqg9F-1" target="TbQtkp3sbQzcPBeuqg9F-15">
          <mxGeometry relative="1" as="geometry" />
        </mxCell>
        <mxCell id="TbQtkp3sbQzcPBeuqg9F-75" style="edgeStyle=orthogonalEdgeStyle;rounded=0;orthogonalLoop=1;jettySize=auto;html=1;" edge="1" parent="1" source="TbQtkp3sbQzcPBeuqg9F-1" target="TbQtkp3sbQzcPBeuqg9F-66">
          <mxGeometry relative="1" as="geometry" />
        </mxCell>
        <mxCell id="TbQtkp3sbQzcPBeuqg9F-1" value="SensorDataPool" style="swimlane;fontStyle=1;align=center;verticalAlign=top;childLayout=stackLayout;horizontal=1;startSize=26;horizontalStack=0;resizeParent=1;resizeParentMax=0;resizeLast=0;collapsible=1;marginBottom=0;whiteSpace=wrap;html=1;" vertex="1" parent="1">
          <mxGeometry x="150" y="350" width="280" height="230" as="geometry" />
        </mxCell>
        <mxCell id="TbQtkp3sbQzcPBeuqg9F-2" value="current_timestamp_ns_:uint64_t" style="text;strokeColor=none;fillColor=none;align=left;verticalAlign=top;spacingLeft=4;spacingRight=4;overflow=hidden;rotatable=0;points=[[0,0.5],[1,0.5]];portConstraint=eastwest;whiteSpace=wrap;html=1;" vertex="1" parent="TbQtkp3sbQzcPBeuqg9F-1">
          <mxGeometry y="26" width="280" height="26" as="geometry" />
        </mxCell>
        <mxCell id="TbQtkp3sbQzcPBeuqg9F-7" value="camera_valid_update_latency_threshold_s_:float" style="text;strokeColor=none;fillColor=none;align=left;verticalAlign=top;spacingLeft=4;spacingRight=4;overflow=hidden;rotatable=0;points=[[0,0.5],[1,0.5]];portConstraint=eastwest;whiteSpace=wrap;html=1;" vertex="1" parent="TbQtkp3sbQzcPBeuqg9F-1">
          <mxGeometry y="52" width="280" height="26" as="geometry" />
        </mxCell>
        <mxCell id="TbQtkp3sbQzcPBeuqg9F-9" value="lidar_valid_update_latency_threshold_s_:float" style="text;strokeColor=none;fillColor=none;align=left;verticalAlign=top;spacingLeft=4;spacingRight=4;overflow=hidden;rotatable=0;points=[[0,0.5],[1,0.5]];portConstraint=eastwest;whiteSpace=wrap;html=1;" vertex="1" parent="TbQtkp3sbQzcPBeuqg9F-1">
          <mxGeometry y="78" width="280" height="26" as="geometry" />
        </mxCell>
        <mxCell id="TbQtkp3sbQzcPBeuqg9F-10" value="radar_valid_update_latency_threshold_s_:float" style="text;strokeColor=none;fillColor=none;align=left;verticalAlign=top;spacingLeft=4;spacingRight=4;overflow=hidden;rotatable=0;points=[[0,0.5],[1,0.5]];portConstraint=eastwest;whiteSpace=wrap;html=1;" vertex="1" parent="TbQtkp3sbQzcPBeuqg9F-1">
          <mxGeometry y="104" width="280" height="26" as="geometry" />
        </mxCell>
        <mxCell id="TbQtkp3sbQzcPBeuqg9F-11" value="sensor_object_group_manager_ptr_:&lt;br&gt;SensorObjectGroupManager" style="text;strokeColor=none;fillColor=none;align=left;verticalAlign=top;spacingLeft=4;spacingRight=4;overflow=hidden;rotatable=0;points=[[0,0.5],[1,0.5]];portConstraint=eastwest;whiteSpace=wrap;html=1;" vertex="1" parent="TbQtkp3sbQzcPBeuqg9F-1">
          <mxGeometry y="130" width="280" height="40" as="geometry" />
        </mxCell>
        <mxCell id="TbQtkp3sbQzcPBeuqg9F-12" value="calibration_info_ptr_:CalibrationInfo" style="text;strokeColor=none;fillColor=none;align=left;verticalAlign=top;spacingLeft=4;spacingRight=4;overflow=hidden;rotatable=0;points=[[0,0.5],[1,0.5]];portConstraint=eastwest;whiteSpace=wrap;html=1;" vertex="1" parent="TbQtkp3sbQzcPBeuqg9F-1">
          <mxGeometry y="170" width="280" height="26" as="geometry" />
        </mxCell>
        <mxCell id="TbQtkp3sbQzcPBeuqg9F-3" value="" style="line;strokeWidth=1;fillColor=none;align=left;verticalAlign=middle;spacingTop=-1;spacingLeft=3;spacingRight=3;rotatable=0;labelPosition=right;points=[];portConstraint=eastwest;strokeColor=inherit;" vertex="1" parent="TbQtkp3sbQzcPBeuqg9F-1">
          <mxGeometry y="196" width="280" height="4" as="geometry" />
        </mxCell>
        <mxCell id="TbQtkp3sbQzcPBeuqg9F-4" value="+ method(type): type" style="text;strokeColor=none;fillColor=none;align=left;verticalAlign=top;spacingLeft=4;spacingRight=4;overflow=hidden;rotatable=0;points=[[0,0.5],[1,0.5]];portConstraint=eastwest;whiteSpace=wrap;html=1;" vertex="1" parent="TbQtkp3sbQzcPBeuqg9F-1">
          <mxGeometry y="200" width="280" height="30" as="geometry" />
        </mxCell>
        <mxCell id="TbQtkp3sbQzcPBeuqg9F-65" style="edgeStyle=orthogonalEdgeStyle;rounded=0;orthogonalLoop=1;jettySize=auto;html=1;entryX=0.5;entryY=0;entryDx=0;entryDy=0;" edge="1" parent="1" source="TbQtkp3sbQzcPBeuqg9F-15" target="TbQtkp3sbQzcPBeuqg9F-22">
          <mxGeometry relative="1" as="geometry" />
        </mxCell>
        <mxCell id="TbQtkp3sbQzcPBeuqg9F-15" value="SensorObjectGroupManager" style="swimlane;fontStyle=1;align=center;verticalAlign=top;childLayout=stackLayout;horizontal=1;startSize=26;horizontalStack=0;resizeParent=1;resizeParentMax=0;resizeLast=0;collapsible=1;marginBottom=0;whiteSpace=wrap;html=1;" vertex="1" parent="1">
          <mxGeometry x="20" y="620" width="290" height="190" as="geometry" />
        </mxCell>
        <mxCell id="TbQtkp3sbQzcPBeuqg9F-16" value="group_index_:uint64_t" style="text;strokeColor=none;fillColor=none;align=left;verticalAlign=top;spacingLeft=4;spacingRight=4;overflow=hidden;rotatable=0;points=[[0,0.5],[1,0.5]];portConstraint=eastwest;whiteSpace=wrap;html=1;" vertex="1" parent="TbQtkp3sbQzcPBeuqg9F-15">
          <mxGeometry y="26" width="290" height="26" as="geometry" />
        </mxCell>
        <mxCell id="TbQtkp3sbQzcPBeuqg9F-20" value="max_group_index_:uint64_t" style="text;strokeColor=none;fillColor=none;align=left;verticalAlign=top;spacingLeft=4;spacingRight=4;overflow=hidden;rotatable=0;points=[[0,0.5],[1,0.5]];portConstraint=eastwest;whiteSpace=wrap;html=1;" vertex="1" parent="TbQtkp3sbQzcPBeuqg9F-15">
          <mxGeometry y="52" width="290" height="26" as="geometry" />
        </mxCell>
        <mxCell id="TbQtkp3sbQzcPBeuqg9F-19" value="sensor_object_groups_:&lt;br&gt;map&amp;lt;string,SensorObejctGroup&amp;gt;" style="text;strokeColor=none;fillColor=none;align=left;verticalAlign=top;spacingLeft=4;spacingRight=4;overflow=hidden;rotatable=0;points=[[0,0.5],[1,0.5]];portConstraint=eastwest;whiteSpace=wrap;html=1;" vertex="1" parent="TbQtkp3sbQzcPBeuqg9F-15">
          <mxGeometry y="78" width="290" height="38" as="geometry" />
        </mxCell>
        <mxCell id="TbQtkp3sbQzcPBeuqg9F-17" value="" style="line;strokeWidth=1;fillColor=none;align=left;verticalAlign=middle;spacingTop=-1;spacingLeft=3;spacingRight=3;rotatable=0;labelPosition=right;points=[];portConstraint=eastwest;strokeColor=inherit;" vertex="1" parent="TbQtkp3sbQzcPBeuqg9F-15">
          <mxGeometry y="116" width="290" height="12" as="geometry" />
        </mxCell>
        <mxCell id="TbQtkp3sbQzcPBeuqg9F-18" value="&lt;div&gt;AddGroupObjects(&lt;span style=&quot;background-color: initial;&quot;&gt;const uint64_t group_id,&lt;/span&gt;&lt;/div&gt;&lt;div&gt;&amp;nbsp; &amp;nbsp; const std::vector&amp;lt;ObjectObservationPtr&amp;gt;&amp;amp;&amp;nbsp; &amp;nbsp; &amp;nbsp; &amp;nbsp; &amp;nbsp; &amp;nbsp;object_ptrs);&lt;/div&gt;" style="text;strokeColor=none;fillColor=none;align=left;verticalAlign=top;spacingLeft=4;spacingRight=4;overflow=hidden;rotatable=0;points=[[0,0.5],[1,0.5]];portConstraint=eastwest;whiteSpace=wrap;html=1;" vertex="1" parent="TbQtkp3sbQzcPBeuqg9F-15">
          <mxGeometry y="128" width="290" height="62" as="geometry" />
        </mxCell>
        <mxCell id="TbQtkp3sbQzcPBeuqg9F-48" style="edgeStyle=orthogonalEdgeStyle;rounded=0;orthogonalLoop=1;jettySize=auto;html=1;" edge="1" parent="1" source="TbQtkp3sbQzcPBeuqg9F-22" target="TbQtkp3sbQzcPBeuqg9F-47">
          <mxGeometry relative="1" as="geometry" />
        </mxCell>
        <mxCell id="TbQtkp3sbQzcPBeuqg9F-61" style="edgeStyle=orthogonalEdgeStyle;rounded=0;orthogonalLoop=1;jettySize=auto;html=1;" edge="1" parent="1" source="TbQtkp3sbQzcPBeuqg9F-22" target="TbQtkp3sbQzcPBeuqg9F-49">
          <mxGeometry relative="1" as="geometry" />
        </mxCell>
        <mxCell id="TbQtkp3sbQzcPBeuqg9F-22" value="SensorObjectGroup" style="swimlane;fontStyle=1;align=center;verticalAlign=top;childLayout=stackLayout;horizontal=1;startSize=26;horizontalStack=0;resizeParent=1;resizeParentMax=0;resizeLast=0;collapsible=1;marginBottom=0;whiteSpace=wrap;html=1;" vertex="1" parent="1">
          <mxGeometry x="20" y="830" width="290" height="262" as="geometry" />
        </mxCell>
        <mxCell id="TbQtkp3sbQzcPBeuqg9F-23" value="camera_objects_:vector&amp;lt;ObjectObservationPtr&amp;gt;" style="text;strokeColor=none;fillColor=none;align=left;verticalAlign=top;spacingLeft=4;spacingRight=4;overflow=hidden;rotatable=0;points=[[0,0.5],[1,0.5]];portConstraint=eastwest;whiteSpace=wrap;html=1;" vertex="1" parent="TbQtkp3sbQzcPBeuqg9F-22">
          <mxGeometry y="26" width="290" height="26" as="geometry" />
        </mxCell>
        <mxCell id="TbQtkp3sbQzcPBeuqg9F-26" value="camera_objects_:vector&amp;lt;ObjectObservationPtr&amp;gt;" style="text;strokeColor=none;fillColor=none;align=left;verticalAlign=top;spacingLeft=4;spacingRight=4;overflow=hidden;rotatable=0;points=[[0,0.5],[1,0.5]];portConstraint=eastwest;whiteSpace=wrap;html=1;" vertex="1" parent="TbQtkp3sbQzcPBeuqg9F-22">
          <mxGeometry y="52" width="290" height="26" as="geometry" />
        </mxCell>
        <mxCell id="TbQtkp3sbQzcPBeuqg9F-27" value="camera_objects_:vector&amp;lt;ObjectObservationPtr&amp;gt;" style="text;strokeColor=none;fillColor=none;align=left;verticalAlign=top;spacingLeft=4;spacingRight=4;overflow=hidden;rotatable=0;points=[[0,0.5],[1,0.5]];portConstraint=eastwest;whiteSpace=wrap;html=1;" vertex="1" parent="TbQtkp3sbQzcPBeuqg9F-22">
          <mxGeometry y="78" width="290" height="26" as="geometry" />
        </mxCell>
        <mxCell id="TbQtkp3sbQzcPBeuqg9F-28" value="group_status_:GroupStatus" style="text;strokeColor=none;fillColor=none;align=left;verticalAlign=top;spacingLeft=4;spacingRight=4;overflow=hidden;rotatable=0;points=[[0,0.5],[1,0.5]];portConstraint=eastwest;whiteSpace=wrap;html=1;" vertex="1" parent="TbQtkp3sbQzcPBeuqg9F-22">
          <mxGeometry y="104" width="290" height="26" as="geometry" />
        </mxCell>
        <mxCell id="TbQtkp3sbQzcPBeuqg9F-29" value="is_fused_:bool" style="text;strokeColor=none;fillColor=none;align=left;verticalAlign=top;spacingLeft=4;spacingRight=4;overflow=hidden;rotatable=0;points=[[0,0.5],[1,0.5]];portConstraint=eastwest;whiteSpace=wrap;html=1;" vertex="1" parent="TbQtkp3sbQzcPBeuqg9F-22">
          <mxGeometry y="130" width="290" height="26" as="geometry" />
        </mxCell>
        <mxCell id="TbQtkp3sbQzcPBeuqg9F-24" value="" style="line;strokeWidth=1;fillColor=none;align=left;verticalAlign=middle;spacingTop=-1;spacingLeft=3;spacingRight=3;rotatable=0;labelPosition=right;points=[];portConstraint=eastwest;strokeColor=inherit;" vertex="1" parent="TbQtkp3sbQzcPBeuqg9F-22">
          <mxGeometry y="156" width="290" height="8" as="geometry" />
        </mxCell>
        <mxCell id="TbQtkp3sbQzcPBeuqg9F-34" value="GetCameraObjects(&lt;br&gt;std::vector&amp;lt;ObjectObservationPtr&amp;gt; *objects);" style="text;strokeColor=none;fillColor=none;align=left;verticalAlign=top;spacingLeft=4;spacingRight=4;overflow=hidden;rotatable=0;points=[[0,0.5],[1,0.5]];portConstraint=eastwest;whiteSpace=wrap;html=1;" vertex="1" parent="TbQtkp3sbQzcPBeuqg9F-22">
          <mxGeometry y="164" width="290" height="46" as="geometry" />
        </mxCell>
        <mxCell id="TbQtkp3sbQzcPBeuqg9F-31" value="AddObject(const ObjectObservationPtr obj_ptr);" style="text;strokeColor=none;fillColor=none;align=left;verticalAlign=top;spacingLeft=4;spacingRight=4;overflow=hidden;rotatable=0;points=[[0,0.5],[1,0.5]];portConstraint=eastwest;whiteSpace=wrap;html=1;" vertex="1" parent="TbQtkp3sbQzcPBeuqg9F-22">
          <mxGeometry y="210" width="290" height="26" as="geometry" />
        </mxCell>
        <mxCell id="TbQtkp3sbQzcPBeuqg9F-25" value="GetGroupStatus():GroupStatus" style="text;strokeColor=none;fillColor=none;align=left;verticalAlign=top;spacingLeft=4;spacingRight=4;overflow=hidden;rotatable=0;points=[[0,0.5],[1,0.5]];portConstraint=eastwest;whiteSpace=wrap;html=1;" vertex="1" parent="TbQtkp3sbQzcPBeuqg9F-22">
          <mxGeometry y="236" width="290" height="26" as="geometry" />
        </mxCell>
        <mxCell id="TbQtkp3sbQzcPBeuqg9F-47" value="&lt;div style=&quot;text-align: center;&quot;&gt;&lt;b&gt;&lt;u&gt;GroupStatus&lt;/u&gt;&lt;/b&gt;&lt;b style=&quot;background-color: initial;&quot;&gt;:enum&lt;/b&gt;&lt;/div&gt;&lt;hr&gt;&lt;p style=&quot;margin:0px;margin-left:8px;&quot;&gt;GROUP_NONE = -1,&lt;/p&gt;&lt;p style=&quot;margin:0px;margin-left:8px;&quot;&gt;GROUP_CAMERA_ONLY = 0,&lt;/p&gt;&lt;p style=&quot;margin:0px;margin-left:8px;&quot;&gt;GROUP_LIDAR_ONLY = 1,&lt;/p&gt;&lt;p style=&quot;margin:0px;margin-left:8px;&quot;&gt;GROUP_RADAR_ONLY = 2,&lt;/p&gt;&lt;p style=&quot;margin:0px;margin-left:8px;&quot;&gt;GROUP_CAMERA_LIDAR = 3,&lt;span style=&quot;background-color: initial;&quot;&gt;&amp;nbsp; GROUP_CAMERA_RADAR = 4,&lt;/span&gt;&lt;/p&gt;&lt;p style=&quot;margin:0px;margin-left:8px;&quot;&gt;GROUP_LIDAR_RADAR = 5,&lt;/p&gt;&lt;p style=&quot;margin:0px;margin-left:8px;&quot;&gt;GROUP_CAMERA_LIDAR_RADAR = 6&lt;/p&gt;" style="verticalAlign=top;align=left;overflow=fill;fontSize=12;fontFamily=Helvetica;html=1;whiteSpace=wrap;" vertex="1" parent="1">
          <mxGeometry x="390" y="1020" width="230" height="150" as="geometry" />
        </mxCell>
        <mxCell id="TbQtkp3sbQzcPBeuqg9F-62" style="edgeStyle=orthogonalEdgeStyle;rounded=0;orthogonalLoop=1;jettySize=auto;html=1;entryX=0.5;entryY=0;entryDx=0;entryDy=0;" edge="1" parent="1" source="TbQtkp3sbQzcPBeuqg9F-49" target="TbQtkp3sbQzcPBeuqg9F-59">
          <mxGeometry relative="1" as="geometry" />
        </mxCell>
        <mxCell id="TbQtkp3sbQzcPBeuqg9F-49" value="ObjectObservation" style="swimlane;fontStyle=1;align=center;verticalAlign=top;childLayout=stackLayout;horizontal=1;startSize=26;horizontalStack=0;resizeParent=1;resizeParentMax=0;resizeLast=0;collapsible=1;marginBottom=0;whiteSpace=wrap;html=1;" vertex="1" parent="1">
          <mxGeometry x="55" y="1170" width="220" height="280" as="geometry">
            <mxRectangle x="190" y="1170" width="150" height="30" as="alternateBounds" />
          </mxGeometry>
        </mxCell>
        <mxCell id="TbQtkp3sbQzcPBeuqg9F-50" value="sensor_object_ptr_:SensorObjectPtr" style="text;strokeColor=none;fillColor=none;align=left;verticalAlign=top;spacingLeft=4;spacingRight=4;overflow=hidden;rotatable=0;points=[[0,0.5],[1,0.5]];portConstraint=eastwest;whiteSpace=wrap;html=1;" vertex="1" parent="TbQtkp3sbQzcPBeuqg9F-49">
          <mxGeometry y="26" width="220" height="26" as="geometry" />
        </mxCell>
        <mxCell id="TbQtkp3sbQzcPBeuqg9F-53" value="track_id_:uint64_t" style="text;strokeColor=none;fillColor=none;align=left;verticalAlign=top;spacingLeft=4;spacingRight=4;overflow=hidden;rotatable=0;points=[[0,0.5],[1,0.5]];portConstraint=eastwest;whiteSpace=wrap;html=1;" vertex="1" parent="TbQtkp3sbQzcPBeuqg9F-49">
          <mxGeometry y="52" width="220" height="26" as="geometry" />
        </mxCell>
        <mxCell id="TbQtkp3sbQzcPBeuqg9F-54" value="sensorNameAndObjectID_:string" style="text;strokeColor=none;fillColor=none;align=left;verticalAlign=top;spacingLeft=4;spacingRight=4;overflow=hidden;rotatable=0;points=[[0,0.5],[1,0.5]];portConstraint=eastwest;whiteSpace=wrap;html=1;" vertex="1" parent="TbQtkp3sbQzcPBeuqg9F-49">
          <mxGeometry y="78" width="220" height="26" as="geometry" />
        </mxCell>
        <mxCell id="TbQtkp3sbQzcPBeuqg9F-55" value="camera_*_trans_:Eigen::Matrix3f" style="text;strokeColor=none;fillColor=none;align=left;verticalAlign=top;spacingLeft=4;spacingRight=4;overflow=hidden;rotatable=0;points=[[0,0.5],[1,0.5]];portConstraint=eastwest;whiteSpace=wrap;html=1;" vertex="1" parent="TbQtkp3sbQzcPBeuqg9F-49">
          <mxGeometry y="104" width="220" height="26" as="geometry" />
        </mxCell>
        <mxCell id="TbQtkp3sbQzcPBeuqg9F-56" value="associate_*_object_:set&amp;lt;string&amp;gt;" style="text;strokeColor=none;fillColor=none;align=left;verticalAlign=top;spacingLeft=4;spacingRight=4;overflow=hidden;rotatable=0;points=[[0,0.5],[1,0.5]];portConstraint=eastwest;whiteSpace=wrap;html=1;" vertex="1" parent="TbQtkp3sbQzcPBeuqg9F-49">
          <mxGeometry y="130" width="220" height="26" as="geometry" />
        </mxCell>
        <mxCell id="TbQtkp3sbQzcPBeuqg9F-57" value="associate_*_names_:set&amp;lt;string&amp;gt;" style="text;strokeColor=none;fillColor=none;align=left;verticalAlign=top;spacingLeft=4;spacingRight=4;overflow=hidden;rotatable=0;points=[[0,0.5],[1,0.5]];portConstraint=eastwest;whiteSpace=wrap;html=1;" vertex="1" parent="TbQtkp3sbQzcPBeuqg9F-49">
          <mxGeometry y="156" width="220" height="26" as="geometry" />
        </mxCell>
        <mxCell id="TbQtkp3sbQzcPBeuqg9F-58" value="associated_radar_lite_info_:&lt;br&gt;AttachedRadarLiteInfo" style="text;strokeColor=none;fillColor=none;align=left;verticalAlign=top;spacingLeft=4;spacingRight=4;overflow=hidden;rotatable=0;points=[[0,0.5],[1,0.5]];portConstraint=eastwest;whiteSpace=wrap;html=1;" vertex="1" parent="TbQtkp3sbQzcPBeuqg9F-49">
          <mxGeometry y="182" width="220" height="38" as="geometry" />
        </mxCell>
        <mxCell id="TbQtkp3sbQzcPBeuqg9F-51" value="" style="line;strokeWidth=1;fillColor=none;align=left;verticalAlign=middle;spacingTop=-1;spacingLeft=3;spacingRight=3;rotatable=0;labelPosition=right;points=[];portConstraint=eastwest;strokeColor=inherit;" vertex="1" parent="TbQtkp3sbQzcPBeuqg9F-49">
          <mxGeometry y="220" width="220" height="8" as="geometry" />
        </mxCell>
        <mxCell id="TbQtkp3sbQzcPBeuqg9F-52" value="SetObject(const SensorObjectPtr&amp;amp; object_ptr):void" style="text;strokeColor=none;fillColor=none;align=left;verticalAlign=top;spacingLeft=4;spacingRight=4;overflow=hidden;rotatable=0;points=[[0,0.5],[1,0.5]];portConstraint=eastwest;whiteSpace=wrap;html=1;" vertex="1" parent="TbQtkp3sbQzcPBeuqg9F-49">
          <mxGeometry y="228" width="220" height="52" as="geometry" />
        </mxCell>
        <mxCell id="TbQtkp3sbQzcPBeuqg9F-64" style="edgeStyle=orthogonalEdgeStyle;rounded=0;orthogonalLoop=1;jettySize=auto;html=1;entryX=-0.016;entryY=0.551;entryDx=0;entryDy=0;entryPerimeter=0;" edge="1" parent="1" source="TbQtkp3sbQzcPBeuqg9F-59" target="TbQtkp3sbQzcPBeuqg9F-60">
          <mxGeometry relative="1" as="geometry" />
        </mxCell>
        <mxCell id="TbQtkp3sbQzcPBeuqg9F-59" value="&lt;div style=&quot;text-align: center;&quot;&gt;&lt;b&gt;&lt;u&gt;SensorObject&lt;/u&gt;&lt;/b&gt;&lt;b style=&quot;background-color: initial;&quot;&gt;:struct&lt;/b&gt;&lt;/div&gt;&lt;hr&gt;&lt;p style=&quot;margin:0px;margin-left:8px;&quot;&gt;string sensor_name;&lt;br&gt;string merge_sensor_name;&lt;/p&gt;&lt;p style=&quot;margin:0px;margin-left:8px;&quot;&gt;uint64_t frame_id;&lt;br&gt;bool is_fused = false;&lt;br&gt;float *_confidence - 1.0f;&lt;/p&gt;&lt;p style=&quot;margin:0px;margin-left:8px;&quot;&gt;float associate_score = 0.f;&lt;/p&gt;&lt;p style=&quot;margin:0px;margin-left:8px;&quot;&gt;CameraObjectSupplementPtr&lt;br&gt;&lt;/p&gt;&lt;p style=&quot;margin:0px;margin-left:8px;&quot;&gt;camera_supplement_ptr = nullptr;&lt;br&gt;&lt;/p&gt;&lt;p style=&quot;margin:0px;margin-left:8px;&quot;&gt;LidarObjectSupplementPtr&lt;br&gt;&lt;/p&gt;&lt;p style=&quot;margin:0px;margin-left:8px;&quot;&gt;lidar_supplement_ptr = nullptr;&lt;br&gt;&lt;/p&gt;&lt;p style=&quot;margin:0px;margin-left:8px;&quot;&gt;RadarObjectSupplementPtr&lt;br&gt;&lt;/p&gt;&lt;p style=&quot;margin:0px;margin-left:8px;&quot;&gt;radar_supplement_ptr = nullptr;&lt;br&gt;&lt;/p&gt;" style="verticalAlign=top;align=left;overflow=fill;fontSize=12;fontFamily=Helvetica;html=1;whiteSpace=wrap;" vertex="1" parent="1">
          <mxGeometry x="60" y="1500" width="210" height="210" as="geometry" />
        </mxCell>
        <mxCell id="TbQtkp3sbQzcPBeuqg9F-60" value="&lt;div style=&quot;text-align: center;&quot;&gt;&lt;b&gt;&lt;u&gt;CameraObjectSupplement&lt;/u&gt;&lt;/b&gt;&lt;b style=&quot;background-color: initial;&quot;&gt;:struct&lt;/b&gt;&lt;/div&gt;&lt;hr&gt;&lt;p style=&quot;margin:0px;margin-left:8px;&quot;&gt;Bbox2D bounding_box;&lt;br&gt;Bbox2D raw_detection_box;&lt;/p&gt;&lt;p style=&quot;margin:0px;margin-left:8px;&quot;&gt;Bbox2D occlusion_bbox;&lt;br&gt;&lt;/p&gt;&lt;p style=&quot;margin:0px;margin-left:8px;&quot;&gt;float detector_confidence;&lt;br&gt;float tracker_confidence;&lt;/p&gt;&lt;p style=&quot;margin:0px;margin-left:8px;&quot;&gt;DepthPoint depth_point;&lt;br&gt;&lt;/p&gt;&lt;p style=&quot;margin:0px;margin-left:8px;&quot;&gt;unordered_map&amp;lt;string,Bbox2D&amp;gt;&amp;nbsp;&lt;/p&gt;&lt;p style=&quot;margin:0px;margin-left:8px;&quot;&gt;projected_bboxes;&lt;/p&gt;&lt;p style=&quot;margin:0px;margin-left:8px;&quot;&gt;Eigen::VectorXf reid_feature;&lt;/p&gt;&lt;p style=&quot;margin:0px;margin-left:8px;&quot;&gt;vector&amp;lt;Eigen::Vector2f&amp;gt; *_bbox;&lt;/p&gt;&lt;p style=&quot;margin:0px;margin-left:8px;&quot;&gt;ObjectLabel raw_label;&lt;/p&gt;&lt;p style=&quot;margin:0px;margin-left:8px;&quot;&gt;Bbox2DMotionInfo bbox_motion_info;&lt;/p&gt;&lt;p style=&quot;margin:0px;margin-left:8px;&quot;&gt;vector&amp;lt;string&amp;gt; visible_camera_names;&lt;/p&gt;&lt;p style=&quot;margin:0px;margin-left:8px;&quot;&gt;&lt;br&gt;&lt;/p&gt;" style="verticalAlign=top;align=left;overflow=fill;fontSize=12;fontFamily=Helvetica;html=1;whiteSpace=wrap;" vertex="1" parent="1">
          <mxGeometry x="370" y="1472" width="210" height="240" as="geometry" />
        </mxCell>
        <mxCell id="TbQtkp3sbQzcPBeuqg9F-66" value="CalibrationInfo" style="swimlane;fontStyle=1;align=center;verticalAlign=top;childLayout=stackLayout;horizontal=1;startSize=26;horizontalStack=0;resizeParent=1;resizeParentMax=0;resizeLast=0;collapsible=1;marginBottom=0;whiteSpace=wrap;html=1;" vertex="1" parent="1">
          <mxGeometry x="330" y="620" width="310" height="300" as="geometry" />
        </mxCell>
        <mxCell id="TbQtkp3sbQzcPBeuqg9F-67" value="car_center_name_:string" style="text;strokeColor=none;fillColor=none;align=left;verticalAlign=top;spacingLeft=4;spacingRight=4;overflow=hidden;rotatable=0;points=[[0,0.5],[1,0.5]];portConstraint=eastwest;whiteSpace=wrap;html=1;" vertex="1" parent="TbQtkp3sbQzcPBeuqg9F-66">
          <mxGeometry y="26" width="310" height="26" as="geometry" />
        </mxCell>
        <mxCell id="TbQtkp3sbQzcPBeuqg9F-70" value="camera_mapping_params_:&lt;br&gt;map&amp;lt;string, CameraMappingParamPtr&amp;gt;" style="text;strokeColor=none;fillColor=none;align=left;verticalAlign=top;spacingLeft=4;spacingRight=4;overflow=hidden;rotatable=0;points=[[0,0.5],[1,0.5]];portConstraint=eastwest;whiteSpace=wrap;html=1;" vertex="1" parent="TbQtkp3sbQzcPBeuqg9F-66">
          <mxGeometry y="52" width="310" height="38" as="geometry" />
        </mxCell>
        <mxCell id="TbQtkp3sbQzcPBeuqg9F-71" value="camera_internal_calib_params_:&lt;br&gt;map&amp;lt;string,camInternalCalibParamPtr&amp;gt;" style="text;strokeColor=none;fillColor=none;align=left;verticalAlign=top;spacingLeft=4;spacingRight=4;overflow=hidden;rotatable=0;points=[[0,0.5],[1,0.5]];portConstraint=eastwest;whiteSpace=wrap;html=1;" vertex="1" parent="TbQtkp3sbQzcPBeuqg9F-66">
          <mxGeometry y="90" width="310" height="40" as="geometry" />
        </mxCell>
        <mxCell id="TbQtkp3sbQzcPBeuqg9F-73" value="sensor_projection_params_:&lt;br&gt;map&amp;lt;string,SensorProjectionParamPtr&amp;gt;" style="text;strokeColor=none;fillColor=none;align=left;verticalAlign=top;spacingLeft=4;spacingRight=4;overflow=hidden;rotatable=0;points=[[0,0.5],[1,0.5]];portConstraint=eastwest;whiteSpace=wrap;html=1;" vertex="1" parent="TbQtkp3sbQzcPBeuqg9F-66">
          <mxGeometry y="130" width="310" height="40" as="geometry" />
        </mxCell>
        <mxCell id="TbQtkp3sbQzcPBeuqg9F-72" value="cache_projection_buffer_:&lt;br&gt;map&amp;lt;string,Cache3Dto2DprojectionParamBufferPtr&amp;gt;" style="text;strokeColor=none;fillColor=none;align=left;verticalAlign=top;spacingLeft=4;spacingRight=4;overflow=hidden;rotatable=0;points=[[0,0.5],[1,0.5]];portConstraint=eastwest;whiteSpace=wrap;html=1;" vertex="1" parent="TbQtkp3sbQzcPBeuqg9F-66">
          <mxGeometry y="170" width="310" height="40" as="geometry" />
        </mxCell>
        <mxCell id="TbQtkp3sbQzcPBeuqg9F-68" value="" style="line;strokeWidth=1;fillColor=none;align=left;verticalAlign=middle;spacingTop=-1;spacingLeft=3;spacingRight=3;rotatable=0;labelPosition=right;points=[];portConstraint=eastwest;strokeColor=inherit;" vertex="1" parent="TbQtkp3sbQzcPBeuqg9F-66">
          <mxGeometry y="210" width="310" height="8" as="geometry" />
        </mxCell>
        <mxCell id="TbQtkp3sbQzcPBeuqg9F-74" value="Set*Name(const string&amp;amp; name);" style="text;strokeColor=none;fillColor=none;align=left;verticalAlign=top;spacingLeft=4;spacingRight=4;overflow=hidden;rotatable=0;points=[[0,0.5],[1,0.5]];portConstraint=eastwest;whiteSpace=wrap;html=1;" vertex="1" parent="TbQtkp3sbQzcPBeuqg9F-66">
          <mxGeometry y="218" width="310" height="26" as="geometry" />
        </mxCell>
        <mxCell id="TbQtkp3sbQzcPBeuqg9F-69" value="Project*3dto2d(const ObjectObservationPtr&amp;amp; src_object,&lt;div&gt;&amp;nbsp; &amp;nbsp; const std::string&amp;amp; dst_camera_sensor_name,&lt;/div&gt;&lt;span style=&quot;background-color: initial;&quot;&gt;&amp;nbsp; &amp;nbsp; Point2f* img_point&lt;/span&gt;)" style="text;strokeColor=none;fillColor=none;align=left;verticalAlign=top;spacingLeft=4;spacingRight=4;overflow=hidden;rotatable=0;points=[[0,0.5],[1,0.5]];portConstraint=eastwest;whiteSpace=wrap;html=1;" vertex="1" parent="TbQtkp3sbQzcPBeuqg9F-66">
          <mxGeometry y="244" width="310" height="56" as="geometry" />
        </mxCell>
        <mxCell id="TbQtkp3sbQzcPBeuqg9F-96" style="edgeStyle=orthogonalEdgeStyle;rounded=0;orthogonalLoop=1;jettySize=auto;html=1;" edge="1" parent="1" source="TbQtkp3sbQzcPBeuqg9F-76" target="TbQtkp3sbQzcPBeuqg9F-87">
          <mxGeometry relative="1" as="geometry" />
        </mxCell>
        <mxCell id="TbQtkp3sbQzcPBeuqg9F-76" value="TrackDataPool" style="swimlane;fontStyle=1;align=center;verticalAlign=top;childLayout=stackLayout;horizontal=1;startSize=26;horizontalStack=0;resizeParent=1;resizeParentMax=0;resizeLast=0;collapsible=1;marginBottom=0;whiteSpace=wrap;html=1;" vertex="1" parent="1">
          <mxGeometry x="670" y="350" width="320" height="216" as="geometry" />
        </mxCell>
        <mxCell id="TbQtkp3sbQzcPBeuqg9F-81" value="current_timestamp_ns_:uint64_t" style="text;strokeColor=none;fillColor=none;align=left;verticalAlign=top;spacingLeft=4;spacingRight=4;overflow=hidden;rotatable=0;points=[[0,0.5],[1,0.5]];portConstraint=eastwest;whiteSpace=wrap;html=1;" vertex="1" parent="TbQtkp3sbQzcPBeuqg9F-76">
          <mxGeometry y="26" width="320" height="26" as="geometry" />
        </mxCell>
        <mxCell id="TbQtkp3sbQzcPBeuqg9F-77" value="object_track_cluster_ptr_:ObjectTrackClusterPtr" style="text;strokeColor=none;fillColor=none;align=left;verticalAlign=top;spacingLeft=4;spacingRight=4;overflow=hidden;rotatable=0;points=[[0,0.5],[1,0.5]];portConstraint=eastwest;whiteSpace=wrap;html=1;" vertex="1" parent="TbQtkp3sbQzcPBeuqg9F-76">
          <mxGeometry y="52" width="320" height="26" as="geometry" />
        </mxCell>
        <mxCell id="TbQtkp3sbQzcPBeuqg9F-80" value="freespace_3d_ptr_:FusionFreespacePtr" style="text;strokeColor=none;fillColor=none;align=left;verticalAlign=top;spacingLeft=4;spacingRight=4;overflow=hidden;rotatable=0;points=[[0,0.5],[1,0.5]];portConstraint=eastwest;whiteSpace=wrap;html=1;" vertex="1" parent="TbQtkp3sbQzcPBeuqg9F-76">
          <mxGeometry y="78" width="320" height="26" as="geometry" />
        </mxCell>
        <mxCell id="TbQtkp3sbQzcPBeuqg9F-85" value="freespace_2d_ptr_:FusionFreespacePtr" style="text;strokeColor=none;fillColor=none;align=left;verticalAlign=top;spacingLeft=4;spacingRight=4;overflow=hidden;rotatable=0;points=[[0,0.5],[1,0.5]];portConstraint=eastwest;whiteSpace=wrap;html=1;" vertex="1" parent="TbQtkp3sbQzcPBeuqg9F-76">
          <mxGeometry y="104" width="320" height="26" as="geometry" />
        </mxCell>
        <mxCell id="TbQtkp3sbQzcPBeuqg9F-78" value="" style="line;strokeWidth=1;fillColor=none;align=left;verticalAlign=middle;spacingTop=-1;spacingLeft=3;spacingRight=3;rotatable=0;labelPosition=right;points=[];portConstraint=eastwest;strokeColor=inherit;" vertex="1" parent="TbQtkp3sbQzcPBeuqg9F-76">
          <mxGeometry y="130" width="320" height="8" as="geometry" />
        </mxCell>
        <mxCell id="TbQtkp3sbQzcPBeuqg9F-79" value="SetObjectTrackCluster(const ObjectTrackClusterPtr &amp;amp;);" style="text;strokeColor=none;fillColor=none;align=left;verticalAlign=top;spacingLeft=4;spacingRight=4;overflow=hidden;rotatable=0;points=[[0,0.5],[1,0.5]];portConstraint=eastwest;whiteSpace=wrap;html=1;" vertex="1" parent="TbQtkp3sbQzcPBeuqg9F-76">
          <mxGeometry y="138" width="320" height="26" as="geometry" />
        </mxCell>
        <mxCell id="TbQtkp3sbQzcPBeuqg9F-82" value="SetFreespace3D(const FusionFreespacePtr &amp;amp;);" style="text;strokeColor=none;fillColor=none;align=left;verticalAlign=top;spacingLeft=4;spacingRight=4;overflow=hidden;rotatable=0;points=[[0,0.5],[1,0.5]];portConstraint=eastwest;whiteSpace=wrap;html=1;" vertex="1" parent="TbQtkp3sbQzcPBeuqg9F-76">
          <mxGeometry y="164" width="320" height="26" as="geometry" />
        </mxCell>
        <mxCell id="TbQtkp3sbQzcPBeuqg9F-83" value="SetFreespace2D(const FusionFreespacePtr &amp;amp;);" style="text;strokeColor=none;fillColor=none;align=left;verticalAlign=top;spacingLeft=4;spacingRight=4;overflow=hidden;rotatable=0;points=[[0,0.5],[1,0.5]];portConstraint=eastwest;whiteSpace=wrap;html=1;" vertex="1" parent="TbQtkp3sbQzcPBeuqg9F-76">
          <mxGeometry y="190" width="320" height="26" as="geometry" />
        </mxCell>
        <mxCell id="TbQtkp3sbQzcPBeuqg9F-109" style="edgeStyle=orthogonalEdgeStyle;rounded=0;orthogonalLoop=1;jettySize=auto;html=1;entryX=0.5;entryY=0;entryDx=0;entryDy=0;" edge="1" parent="1" source="TbQtkp3sbQzcPBeuqg9F-87" target="TbQtkp3sbQzcPBeuqg9F-97">
          <mxGeometry relative="1" as="geometry" />
        </mxCell>
        <mxCell id="TbQtkp3sbQzcPBeuqg9F-87" value="ObjectTrackCluster" style="swimlane;fontStyle=1;align=center;verticalAlign=top;childLayout=stackLayout;horizontal=1;startSize=26;horizontalStack=0;resizeParent=1;resizeParentMax=0;resizeLast=0;collapsible=1;marginBottom=0;whiteSpace=wrap;html=1;" vertex="1" parent="1">
          <mxGeometry x="670" y="608" width="320" height="200" as="geometry" />
        </mxCell>
        <mxCell id="TbQtkp3sbQzcPBeuqg9F-88" value="object_count_:uint64_t" style="text;strokeColor=none;fillColor=none;align=left;verticalAlign=top;spacingLeft=4;spacingRight=4;overflow=hidden;rotatable=0;points=[[0,0.5],[1,0.5]];portConstraint=eastwest;whiteSpace=wrap;html=1;" vertex="1" parent="TbQtkp3sbQzcPBeuqg9F-87">
          <mxGeometry y="26" width="320" height="26" as="geometry" />
        </mxCell>
        <mxCell id="TbQtkp3sbQzcPBeuqg9F-91" value="*_max_invisible_duration_s_threshold_:float" style="text;strokeColor=none;fillColor=none;align=left;verticalAlign=top;spacingLeft=4;spacingRight=4;overflow=hidden;rotatable=0;points=[[0,0.5],[1,0.5]];portConstraint=eastwest;whiteSpace=wrap;html=1;" vertex="1" parent="TbQtkp3sbQzcPBeuqg9F-87">
          <mxGeometry y="52" width="320" height="26" as="geometry" />
        </mxCell>
        <mxCell id="TbQtkp3sbQzcPBeuqg9F-95" value="object_track_ptrs_:vector&amp;lt;ObjectTrackPtr&amp;gt;" style="text;strokeColor=none;fillColor=none;align=left;verticalAlign=top;spacingLeft=4;spacingRight=4;overflow=hidden;rotatable=0;points=[[0,0.5],[1,0.5]];portConstraint=eastwest;whiteSpace=wrap;html=1;" vertex="1" parent="TbQtkp3sbQzcPBeuqg9F-87">
          <mxGeometry y="78" width="320" height="26" as="geometry" />
        </mxCell>
        <mxCell id="TbQtkp3sbQzcPBeuqg9F-92" value="frame_id_map:map&amp;lt;string,uint64_t&amp;gt;" style="text;strokeColor=none;fillColor=none;align=left;verticalAlign=top;spacingLeft=4;spacingRight=4;overflow=hidden;rotatable=0;points=[[0,0.5],[1,0.5]];portConstraint=eastwest;whiteSpace=wrap;html=1;" vertex="1" parent="TbQtkp3sbQzcPBeuqg9F-87">
          <mxGeometry y="104" width="320" height="26" as="geometry" />
        </mxCell>
        <mxCell id="TbQtkp3sbQzcPBeuqg9F-89" value="" style="line;strokeWidth=1;fillColor=none;align=left;verticalAlign=middle;spacingTop=-1;spacingLeft=3;spacingRight=3;rotatable=0;labelPosition=right;points=[];portConstraint=eastwest;strokeColor=inherit;" vertex="1" parent="TbQtkp3sbQzcPBeuqg9F-87">
          <mxGeometry y="130" width="320" height="8" as="geometry" />
        </mxCell>
        <mxCell id="TbQtkp3sbQzcPBeuqg9F-93" value="ObjectTrackPtr GetObjectTrackByID(const uint64_t id);" style="text;strokeColor=none;fillColor=none;align=left;verticalAlign=top;spacingLeft=4;spacingRight=4;overflow=hidden;rotatable=0;points=[[0,0.5],[1,0.5]];portConstraint=eastwest;whiteSpace=wrap;html=1;" vertex="1" parent="TbQtkp3sbQzcPBeuqg9F-87">
          <mxGeometry y="138" width="320" height="26" as="geometry" />
        </mxCell>
        <mxCell id="TbQtkp3sbQzcPBeuqg9F-94" value="GetObjectTracks(std::vector&amp;lt;ObjectTrackPtr&amp;gt;* object_tracks);" style="text;strokeColor=none;fillColor=none;align=left;verticalAlign=top;spacingLeft=4;spacingRight=4;overflow=hidden;rotatable=0;points=[[0,0.5],[1,0.5]];portConstraint=eastwest;whiteSpace=wrap;html=1;" vertex="1" parent="TbQtkp3sbQzcPBeuqg9F-87">
          <mxGeometry y="164" width="320" height="36" as="geometry" />
        </mxCell>
        <mxCell id="TbQtkp3sbQzcPBeuqg9F-112" style="edgeStyle=orthogonalEdgeStyle;rounded=0;orthogonalLoop=1;jettySize=auto;html=1;entryX=0.42;entryY=0;entryDx=0;entryDy=0;entryPerimeter=0;" edge="1" parent="1" source="TbQtkp3sbQzcPBeuqg9F-97" target="TbQtkp3sbQzcPBeuqg9F-47">
          <mxGeometry relative="1" as="geometry" />
        </mxCell>
        <mxCell id="TbQtkp3sbQzcPBeuqg9F-113" style="edgeStyle=orthogonalEdgeStyle;rounded=0;orthogonalLoop=1;jettySize=auto;html=1;entryX=0.493;entryY=-0.038;entryDx=0;entryDy=0;entryPerimeter=0;" edge="1" parent="1" source="TbQtkp3sbQzcPBeuqg9F-97" target="TbQtkp3sbQzcPBeuqg9F-111">
          <mxGeometry relative="1" as="geometry" />
        </mxCell>
        <mxCell id="TbQtkp3sbQzcPBeuqg9F-97" value="ObjectTrack" style="swimlane;fontStyle=1;align=center;verticalAlign=top;childLayout=stackLayout;horizontal=1;startSize=26;horizontalStack=0;resizeParent=1;resizeParentMax=0;resizeLast=0;collapsible=1;marginBottom=0;whiteSpace=wrap;html=1;" vertex="1" parent="1">
          <mxGeometry x="670" y="830" width="320" height="242" as="geometry" />
        </mxCell>
        <mxCell id="TbQtkp3sbQzcPBeuqg9F-98" value="track_object_ptr_:TrackObjectPtr" style="text;strokeColor=none;fillColor=none;align=left;verticalAlign=top;spacingLeft=4;spacingRight=4;overflow=hidden;rotatable=0;points=[[0,0.5],[1,0.5]];portConstraint=eastwest;whiteSpace=wrap;html=1;" vertex="1" parent="TbQtkp3sbQzcPBeuqg9F-97">
          <mxGeometry y="26" width="320" height="26" as="geometry" />
        </mxCell>
        <mxCell id="TbQtkp3sbQzcPBeuqg9F-102" value="historical_track_objects_:std::deque&amp;lt;TrackObjectPtr&amp;gt;" style="text;strokeColor=none;fillColor=none;align=left;verticalAlign=top;spacingLeft=4;spacingRight=4;overflow=hidden;rotatable=0;points=[[0,0.5],[1,0.5]];portConstraint=eastwest;whiteSpace=wrap;html=1;" vertex="1" parent="TbQtkp3sbQzcPBeuqg9F-97">
          <mxGeometry y="52" width="320" height="26" as="geometry" />
        </mxCell>
        <mxCell id="TbQtkp3sbQzcPBeuqg9F-101" value="motion_status_:std::deque&amp;lt;MotionStatus&amp;gt;" style="text;strokeColor=none;fillColor=none;align=left;verticalAlign=top;spacingLeft=4;spacingRight=4;overflow=hidden;rotatable=0;points=[[0,0.5],[1,0.5]];portConstraint=eastwest;whiteSpace=wrap;html=1;" vertex="1" parent="TbQtkp3sbQzcPBeuqg9F-97">
          <mxGeometry y="78" width="320" height="26" as="geometry" />
        </mxCell>
        <mxCell id="TbQtkp3sbQzcPBeuqg9F-107" value="created_group_status_:GroupStatus" style="text;strokeColor=none;fillColor=none;align=left;verticalAlign=top;spacingLeft=4;spacingRight=4;overflow=hidden;rotatable=0;points=[[0,0.5],[1,0.5]];portConstraint=eastwest;whiteSpace=wrap;html=1;" vertex="1" parent="TbQtkp3sbQzcPBeuqg9F-97">
          <mxGeometry y="104" width="320" height="26" as="geometry" />
        </mxCell>
        <mxCell id="TbQtkp3sbQzcPBeuqg9F-108" value="last_direction_measure_:MeasureState" style="text;strokeColor=none;fillColor=none;align=left;verticalAlign=top;spacingLeft=4;spacingRight=4;overflow=hidden;rotatable=0;points=[[0,0.5],[1,0.5]];portConstraint=eastwest;whiteSpace=wrap;html=1;" vertex="1" parent="TbQtkp3sbQzcPBeuqg9F-97">
          <mxGeometry y="130" width="320" height="26" as="geometry" />
        </mxCell>
        <mxCell id="TbQtkp3sbQzcPBeuqg9F-103" value="yaw_post_filter_:SingleDimLKFPtr" style="text;strokeColor=none;fillColor=none;align=left;verticalAlign=top;spacingLeft=4;spacingRight=4;overflow=hidden;rotatable=0;points=[[0,0.5],[1,0.5]];portConstraint=eastwest;whiteSpace=wrap;html=1;" vertex="1" parent="TbQtkp3sbQzcPBeuqg9F-97">
          <mxGeometry y="156" width="320" height="26" as="geometry" />
        </mxCell>
        <mxCell id="TbQtkp3sbQzcPBeuqg9F-99" value="" style="line;strokeWidth=1;fillColor=none;align=left;verticalAlign=middle;spacingTop=-1;spacingLeft=3;spacingRight=3;rotatable=0;labelPosition=right;points=[];portConstraint=eastwest;strokeColor=inherit;" vertex="1" parent="TbQtkp3sbQzcPBeuqg9F-97">
          <mxGeometry y="182" width="320" height="8" as="geometry" />
        </mxCell>
        <mxCell id="TbQtkp3sbQzcPBeuqg9F-100" value="const TrackObjectPtr GetObject();" style="text;strokeColor=none;fillColor=none;align=left;verticalAlign=top;spacingLeft=4;spacingRight=4;overflow=hidden;rotatable=0;points=[[0,0.5],[1,0.5]];portConstraint=eastwest;whiteSpace=wrap;html=1;" vertex="1" parent="TbQtkp3sbQzcPBeuqg9F-97">
          <mxGeometry y="190" width="320" height="26" as="geometry" />
        </mxCell>
        <mxCell id="TbQtkp3sbQzcPBeuqg9F-106" value="GetTrackDurationTimeNS(const uint64_t timestamp_ns)" style="text;strokeColor=none;fillColor=none;align=left;verticalAlign=top;spacingLeft=4;spacingRight=4;overflow=hidden;rotatable=0;points=[[0,0.5],[1,0.5]];portConstraint=eastwest;whiteSpace=wrap;html=1;" vertex="1" parent="TbQtkp3sbQzcPBeuqg9F-97">
          <mxGeometry y="216" width="320" height="26" as="geometry" />
        </mxCell>
        <mxCell id="TbQtkp3sbQzcPBeuqg9F-111" value="&lt;p style=&quot;margin: 4px 0px 0px; text-align: center;&quot;&gt;&lt;b&gt;&lt;u&gt;TrackObject:struct&lt;/u&gt;&lt;/b&gt;&lt;br&gt;&lt;/p&gt;&lt;hr&gt;&lt;p style=&quot;margin:0px;margin-left:8px;&quot;&gt;float time_s_since_update = 0;&lt;br&gt;GeneralAttributeInfoPtr attribute_info_ptr = nullptr;&lt;br&gt;DSTExistenceTrackerPtr existence_tracker = nullptr;&lt;/p&gt;&lt;p style=&quot;margin:0px;margin-left:8px;&quot;&gt;GraphTrackerPtr graph_tracker_ptr = nullptr;&lt;br&gt;&lt;/p&gt;&lt;p style=&quot;margin:0px;margin-left:8px;&quot;&gt;&lt;br&gt;&lt;/p&gt;" style="verticalAlign=top;align=left;overflow=fill;fontSize=12;fontFamily=Helvetica;html=1;whiteSpace=wrap;" vertex="1" parent="1">
          <mxGeometry x="672" y="1110" width="320" height="100" as="geometry" />
        </mxCell>
      </root>
    </mxGraphModel>
  </diagram>
</mxfile>
